<svg width="19.567mm" height="24mm" version="1.1" viewBox="0 0 19.567 24" xml:space="preserve" xmlns="http://www.w3.org/2000/svg" xmlns:xlink="http://www.w3.org/1999/xlink"><g transform="matrix(.77326 0 0 .77326 2.1896 5.7082)"><g transform="matrix(1.0596 0 0 1.0596 -50.557 -56.307)"><path d="m54.261 71.108c0.7931-5.4438-0.78538-7.7492-6.3038-10.512l4.0955-0.16692c2.6879 2.2601 4.8537 6.0788 2.2083 10.679z" stroke-width=".26458"/><path d="m52.987 60.135 2.2847-3.7873c4.8893 5.2654 5.1573 18.047-6.734 19.117 3.1603-1.8542 11.483-4.8065 4.4493-15.33z" stroke-width=".26458"/><ellipse cx="50.881" cy="56.936" rx="2.0605" ry="2.0603" stroke-width=".36832"/></g><g transform="matrix(-.77685 -.10041 -.10041 .77685 63.354 -37.852)"><path d="m54.261 71.108c0.7931-5.4438-0.78538-7.7492-6.3038-10.512l4.0955-0.16692c2.6879 2.2601 4.8537 6.0788 2.2083 10.679z" stroke-width=".26458"/><path d="m52.987 60.135 2.2847-3.7873c4.8893 5.2654 5.1573 18.047-6.734 19.117 3.1603-1.8542 11.483-4.8065 4.4493-15.33z" stroke-width=".26458"/><ellipse cx="50.881" cy="56.936" rx="2.0605" ry="2.0603" stroke-width=".36832"/></g><path d="m22.473 1.0496c-4.6132-9.536-18.015-12.902-25.305 0.19047l0.62154 0.76396c6.5179-9.8784 15.048-11.855 24.684-0.95443z" stroke-width=".26458"/></g></svg>
