<svg width="104.05mm" height="117.92mm" version="1.1" viewBox="0 0 104.05 117.92" xml:space="preserve" xmlns="http://www.w3.org/2000/svg"><g transform="translate(-74.325 -38.696)"><g transform="translate(-.78812 1.3132)" stroke-width=".48382"><rect x="102.49" y="88.186" width="49.295" height="16.667" rx="1" ry="1"/><rect transform="rotate(90)" x="71.694" y="-135.3" width="49.295" height="16.667" rx="1" ry="1"/></g><path d="m126.19 38.696c-21.418 14.263-33.098 21.357-51.861 28.892 0.10081 51.64 21.626 75.937 51.935 89.025 34.068-14.19 51.754-35.121 52.112-88.929-18.525-6.7522-30.488-13.972-52.186-28.987zm0.13125 11.777 43.315 24.064c-1.802 35.838-16.093 60.391-43.306 73.266-21.366-10.295-41.395-25.583-44.917-73.527z" stroke-width=".26458"/></g></svg>
