<svg version="1.1" viewBox="0 0 2680.2 2494.8" xmlns="http://www.w3.org/2000/svg">
	<path d="m1340.1 0a1340.1 1247.4 0 00-1340.1 1247.4 1340.1 1247.4 0 001340.1 1247.4 1340.1 1247.4 0 001340.1-1247.4 1340.1 1247.4 0 00-1340.1-1247.4zm-7.4414 99.885c217.33.58028 448.91 62.873 680.84 206.56-88.244 274.85-432.74 490.76-691.21 676.24-661.31-122.42-418.71 368.58-325.18 678.3-69.061 520.03-25.388 419.86 169.22 677.91-23.048 3.0745-86.584.5031-123.03-12.592-1578.5-567.16-843.55-2219.3 279.02-2226.4 3.4425-.0218 6.8882-.0287 10.338-.0195zm1147.5 733.08c341.21 950.11-541.12 1544.7-1137.9 1524.7 71.492-102.1-41.607-177.86-44.916-351.84 64.548-195.45 197.96-358.51 257.02-568.94z" fill-rule="evenodd"/>
</svg>
